
<svg width="32" height="32" viewBox="0 0 32 32" fill="none" xmlns="http://www.w3.org/2000/svg">
  <g clip-path="url(#clip0_1714_5)">
    <rect width="32" height="32" rx="7.11111" fill="url(#paint0_linear_1714_5)"/>
    <path d="M20.2226 4.22262L32 16L20.2226 27.7774C19.6681 28.3319 19.0098 28.7718 18.2853 29.0719C17.5607 29.372 16.7842 29.5264 16 29.5264C15.2158 29.5264 14.4393 29.372 13.7147 29.0719C12.9902 28.7718 12.3319 28.3319 11.7774 27.7774L6.80506e-07 16L11.7774 4.22262C12.8973 3.10271 14.4162 2.47355 16 2.47355C17.5838 2.47355 19.1027 3.10271 20.2226 4.22262V4.22262Z" fill="url(#paint1_linear_1714_5)"/>
    <path d="M10.5052 21.56C10.5052 22.2966 9.90816 22.8938 9.17169 22.8938C8.43522 22.8938 7.83819 22.2966 7.83819 21.56C7.83819 20.8234 8.43522 20.2262 9.17169 20.2262C9.90816 20.2262 10.5052 20.8234 10.5052 21.56Z" fill="#FF0088"/>
    <path d="M10.7933 19.1283L7.61816 19.698C7.61816 17.9951 8.18392 15.9006 9.16035 14.821C10.148 13.7302 11.3657 13.1848 12.8135 13.1848C13.4533 13.1848 14.02 13.2961 14.5139 13.5187C15.0077 13.7302 15.4791 13.9751 15.928 14.2533C16.3769 14.5316 16.8371 14.782 17.3085 15.0046C17.7911 15.2161 18.3354 15.3218 18.9415 15.3218C19.5812 15.3218 20.1199 15.077 20.5576 14.5872C21.0066 14.0864 21.231 13.4853 21.231 12.7841L24.3404 12.2153C24.3404 13.9516 23.7675 16.1677 22.7799 17.1917C21.8034 18.2157 20.5913 18.7276 19.1435 18.7276C18.3691 18.7276 17.7294 18.6219 17.2243 18.4104C16.7193 18.1878 16.2703 17.9374 15.8775 17.6591C15.4847 17.3809 15.0694 17.136 14.6317 16.9246C14.194 16.702 13.6553 16.5907 13.0156 16.5907C12.3758 16.5907 11.8427 16.8411 11.4162 17.3419C11.001 17.8317 10.7933 18.4271 10.7933 19.1283Z" fill="url(#paint2_linear_1714_5)"/>
    <path d="M24.103 10.336C24.103 11.0726 23.5059 11.6698 22.7695 11.6698C22.033 11.6698 21.436 11.0726 21.436 10.336C21.436 9.59936 22.033 9.0022 22.7695 9.0022C23.5059 9.0022 24.103 9.59936 24.103 10.336Z" fill="#2824D5"/>
  </g>
  <defs>
    <linearGradient id="paint0_linear_1714_5" x1="4" y1="35" x2="30.5" y2="3" gradientUnits="userSpaceOnUse">
      <stop stop-color="#2824D5"/>
      <stop offset="1" stop-color="#FF0088"/>
    </linearGradient>
    <linearGradient id="paint1_linear_1714_5" x1="4.8318" y1="21.5277" x2="28.3673" y2="9.8776" gradientUnits="userSpaceOnUse">
      <stop stop-color="#2824D5"/>
      <stop offset="1" stop-color="#FF0088"/>
    </linearGradient>
    <linearGradient id="paint2_linear_1714_5" x1="15.9793" y1="9.0022" x2="15.9793" y2="22.8938" gradientUnits="userSpaceOnUse">
      <stop stop-color="white"/>
      <stop offset="1" stop-color="white" stop-opacity="0.7"/>
    </linearGradient>
    <clipPath id="clip0_1714_5">
     <rect width="32" height="32" rx="7.11111" fill="white"/>
    </clipPath>
  </defs>
</svg>
